HIERARCHY
ROOT hip
{
	OFFSET 0.000000 0.000000 0.000000 
	CHANNELS 6 Xposition Yposition Zposition Zrotation Xrotation Yrotation
	JOINT abdomen
	{
		OFFSET 0.000000 3.402643 0.000000 
		CHANNELS 3 Zrotation Xrotation Yrotation
		JOINT chest
		{
			OFFSET 0.000000 8.438565 -0.680529 
			CHANNELS 3 Zrotation Xrotation Yrotation
			JOINT neck
			{
				OFFSET 0.000000 10.207942 -0.272212 
				CHANNELS 3 Zrotation Xrotation Yrotation
				JOINT head
				{
					OFFSET 0.000000 3.130431 0.000000 
					CHANNELS 3 Zrotation Xrotation Yrotation
					End Site
					{
						OFFSET 0.000000 3.130435 0.000000 
					}
				}
			}
			JOINT lCollar
			{
				OFFSET 3.470700 6.669187 -0.816635 
				CHANNELS 3 Zrotation Xrotation Yrotation
				JOINT lShldr
				{
					OFFSET 3.198488 0.000000 0.000000 
					CHANNELS 3 Zrotation Xrotation Yrotation
					JOINT lForeArm
					{
						OFFSET 10.139888 0.000000 0.000000 
						CHANNELS 3 Zrotation Xrotation Yrotation
						JOINT lHand
						{
							OFFSET 8.370511 0.000000 0.000000 
							CHANNELS 3 Zrotation Xrotation Yrotation
							End Site
							{
								OFFSET 4.083176 0.000000 0.000000 
							}
						}
					}
				}
			}
			JOINT rCollar
			{
				OFFSET -3.470700 6.669187 -0.816635 
				CHANNELS 3 Zrotation Xrotation Yrotation
				JOINT rShldr
				{
					OFFSET -3.198488 0.000000 0.000000 
					CHANNELS 3 Zrotation Xrotation Yrotation
					JOINT rForeArm
					{
						OFFSET -10.139888 0.000000 0.000000 
						CHANNELS 3 Zrotation Xrotation Yrotation
						JOINT rHand
						{
							OFFSET -8.370511 0.000000 0.000000 
							CHANNELS 3 Zrotation Xrotation Yrotation
							End Site
							{
								OFFSET -4.083176 0.000000 0.000000 
							}
						}
					}
				}
			}
		}
	}
	JOINT lThigh
	{
		OFFSET 5.308129 -1.633274 1.361059 
		CHANNELS 3 Zrotation Xrotation Yrotation
		JOINT lShin
		{
			OFFSET -2.041588 -20.007561 0.000000 
			CHANNELS 3 Zrotation Xrotation Yrotation
			JOINT lFoot
			{
				OFFSET 0.000000 -19.190928 -1.224953 
				CHANNELS 3 Zrotation Xrotation Yrotation
				End Site
				{
					OFFSET 0.000000 -2.449906 4.627600 
				}
			}
		}
	}
	JOINT rThigh
	{
		OFFSET -5.308129 -1.633274 1.361059 
		CHANNELS 3 Zrotation Xrotation Yrotation
		JOINT rShin
		{
			OFFSET 2.041588 -20.007561 0.000000 
			CHANNELS 3 Zrotation Xrotation Yrotation
			JOINT rFoot
			{
				OFFSET 0.000000 -19.190928 -1.224953 
				CHANNELS 3 Zrotation Xrotation Yrotation
				End Site
				{
					OFFSET 0.000000 -2.449906 4.627600 
				}
			}
		}
	}
}
MOTION
Frames: 18
Frame Time: 0.033333
1.001129 51.012840 -3.052781 -0.508221 -2.294843 -2.432547 -0.000000 -0.000002 -0.000000 -0.146637 2.617180 -10.462079 -13.735686 44.002922 19.285732 -0.954937 -15.993991 -0.145955 -2.000757 -0.069240 1.990978 -39.483425 23.811956 -54.305664 2.790117 10.152197 -30.816666 30.612696 6.020907 -23.054348 1.990970 -0.069577 -2.000746 27.740408 12.148609 77.062881 -5.655408 13.890796 24.116364 54.552540 -14.046803 31.106392 6.027487 -0.883943 14.239629 -0.637318 6.341337 0.625315 -3.549117 -3.326408 -4.745730 -6.036937 -0.523286 2.371131 4.500026 14.268260 1.722821 -4.616077 -19.154137 -13.353347 
1.005353 50.992393 -3.058455 -0.508228 -2.314373 -2.432720 -0.000000 -0.000002 -0.000000 0.304219 5.663990 -11.270260 -12.826094 38.812572 18.824400 -0.954937 -15.993991 -0.145955 -2.000757 -0.069240 1.990978 -44.334427 18.704918 -53.637344 3.567491 9.659274 -39.473610 25.041477 1.002222 -29.155277 1.990970 -0.069577 -2.000746 32.027950 18.809319 75.474083 -5.525364 13.942166 23.575659 51.175568 -29.035219 38.623684 6.330503 -2.018942 14.211516 -0.985072 7.856129 0.674158 -3.201300 -3.702593 -4.726336 -6.140118 -1.435462 2.376351 4.839993 15.087098 1.621860 -4.737109 -19.032930 -13.380335 
1.009255 50.945957 -3.063711 -0.518004 -2.324121 -2.433115 -0.000000 -0.000002 -0.000000 0.749895 8.221955 -12.060242 -11.897244 33.555363 18.496157 -0.954937 -15.993991 -0.145955 -2.000757 -0.069240 1.990978 -49.044834 13.830685 -53.634850 4.233285 9.074024 -47.923264 18.367153 -3.909642 -35.603214 1.990970 -0.069577 -2.000746 36.303795 24.730415 73.602829 -6.125995 13.693398 26.127291 49.793755 -42.432732 45.633583 6.727150 -3.316138 14.239153 -1.358523 9.906151 0.710737 -2.834746 -4.434091 -4.706331 -6.519483 -2.464250 2.371363 5.349321 16.335440 1.484855 -4.757791 -19.279118 -13.374970 
1.012819 50.867550 -3.068497 -0.518004 -2.324121 -2.433115 -0.000000 -0.000002 -0.000000 1.020525 9.725051 -12.760294 -10.968278 28.780573 18.387423 -0.954937 -15.993991 -0.145955 -2.000757 -0.069240 1.990978 -53.476284 9.885634 -53.762398 4.748270 8.475483 -55.402641 11.436321 -7.961141 -42.158161 1.990970 -0.069577 -2.000746 42.287003 30.790922 69.458992 -9.277725 11.723493 40.696159 49.601002 -56.885651 53.946804 7.259135 -4.620925 14.242062 -1.790783 12.214268 0.781246 -2.572231 -5.368892 -4.721091 -6.684042 -3.361658 2.387293 5.882948 17.761505 1.339912 -4.989335 -19.784529 -13.424507 
1.016015 50.751553 -3.072799 -0.508228 -2.314373 -2.432720 -0.000000 -0.000002 -0.000000 1.010122 9.559096 -13.243766 -9.978966 25.034571 18.436268 -0.954937 -15.993991 -0.145955 -2.000757 -0.069240 1.990978 -57.448849 7.386689 -53.359207 5.087153 7.966568 -61.159187 5.372077 -10.663237 -48.214619 1.990970 -0.069577 -2.000746 49.815838 36.222523 63.188755 -12.529498 7.929560 60.196831 54.861397 -70.977196 67.082939 7.705216 -5.571400 14.258655 -2.244338 14.963122 0.854131 -2.274716 -7.089219 -4.730616 -6.820060 -4.079561 2.387407 6.494573 19.329651 1.135611 -5.373969 -20.662634 -13.545573 
1.018810 50.566429 -3.076563 -0.508224 -2.304608 -2.432633 -0.000000 -0.000002 -0.000000 0.462659 7.226335 -13.495621 -8.770035 22.369276 18.573574 -0.954937 -15.993991 -0.145955 -2.000757 -0.069240 1.990978 -60.589966 7.376571 -51.999367 5.000111 8.115741 -59.509209 0.438514 -12.597354 -55.105068 1.990970 -0.069577 -2.000746 54.661533 39.388397 59.323776 -12.933304 7.225022 63.359081 68.072823 -73.354309 84.690392 8.468164 -6.604527 14.237330 -2.914747 18.354736 1.055882 -2.198833 -9.266570 -4.831788 -7.008664 -4.589852 2.389001 7.264088 21.354576 0.868941 -5.960120 -22.138229 -13.718913 
1.021204 50.176807 -3.079765 -0.508224 -2.304608 -2.432633 -0.000000 -0.000002 -0.000000 -0.479130 2.900293 -13.725755 -6.607244 18.090111 18.650616 -0.954937 -15.993991 -0.145955 -2.000757 -0.069240 1.990978 -61.816189 8.259510 -49.889889 4.901567 8.260479 -57.867218 -4.796926 -13.237065 -59.612911 1.990970 -0.069577 -2.000746 57.876167 41.819931 57.639515 -12.192102 8.478790 57.753017 76.235878 -70.356483 94.154007 9.842668 -8.215861 14.323101 -3.968458 23.718273 1.409002 -2.281285 -12.678865 -5.080297 -7.206873 -5.432422 2.450199 8.768225 25.093214 0.312415 -7.214696 -24.976007 -14.183108 
1.023141 49.608845 -3.082383 -0.508221 -2.294843 -2.432547 -0.000000 -0.000002 -0.000000 -1.760112 -2.928308 -14.045021 -3.516952 12.194473 18.614290 -0.954937 -15.993991 -0.145955 -2.000757 -0.069240 1.990978 -61.885803 9.415591 -47.425423 4.726781 8.513960 -54.923359 -7.782117 -13.336954 -60.106789 1.990970 -0.069577 -2.000746 60.946529 43.640911 55.881145 -11.274364 9.732019 51.723694 80.182617 -68.336975 96.781937 11.067859 -9.333454 14.237561 -5.162026 28.900124 1.987907 -2.380596 -16.451279 -5.368698 -7.639946 -6.211564 2.499902 10.578945 29.081795 -0.526743 -8.527933 -28.140657 -14.622716 
1.024607 48.917217 -3.084359 -0.508217 -2.285079 -2.432373 -0.000000 -0.000002 -0.000000 -3.289753 -9.749842 -14.522548 0.196122 5.205044 18.536934 -0.954937 -15.993991 -0.145955 -2.000757 -0.069240 1.990978 -62.400654 11.283834 -45.064346 4.503530 8.772936 -51.768456 -6.419621 -14.423304 -58.138680 1.990970 -0.069577 -2.000746 64.938644 44.746181 51.209496 -10.867696 10.199607 49.331253 82.600311 -68.701881 96.977287 12.361927 -10.218839 14.158823 -6.415670 33.929684 2.649392 -2.645479 -20.236044 -5.716487 -7.979151 -6.764118 2.568454 12.543010 33.030460 -1.547026 -9.972163 -31.492830 -15.219229 
1.025580 48.156902 -3.085662 -0.508214 -2.275313 -2.432373 -0.000000 -0.000002 -0.000000 -5.037842 -17.105524 -15.206813 4.222630 -2.454269 18.404518 -0.954937 -15.993991 -0.145955 -2.000757 -0.069240 1.990978 -62.172237 9.141066 -42.309273 4.240022 9.055137 -48.098999 -3.976335 -17.055653 -54.972504 1.990970 -0.069577 -2.000746 70.566231 41.978153 30.036360 -13.875237 4.981747 72.705917 68.195122 -81.644165 80.985573 13.608485 -10.875416 14.000150 -7.728419 38.660698 3.415553 -3.069722 -23.989004 -6.130712 -8.276833 -7.179673 2.657816 14.593737 36.903580 -2.725430 -11.521323 -34.889900 -15.965352 
1.026036 47.383015 -3.086280 -0.498440 -2.275301 -2.431898 -0.000000 -0.000002 -0.000000 -6.957662 -24.507740 -16.081539 8.198824 -10.277035 18.240057 -0.954937 -15.993991 -0.145955 -2.000757 -0.069240 1.990978 -58.329723 1.719993 -38.497089 4.002779 9.287544 -44.965256 -5.071175 -19.994122 -50.855782 1.990970 -0.069577 -2.000746 73.056190 31.694489 6.431051 -14.384682 -2.329878 100.909645 -59.838493 -81.626633 -50.745155 14.720597 -11.419534 13.775656 -9.078882 42.971203 4.358936 -3.608898 -27.447098 -6.670624 -8.515540 -7.405312 2.761955 16.623356 40.285057 -4.026255 -13.024229 -38.006905 -16.772663 
1.025937 46.650040 -3.086146 -0.498437 -2.265535 -2.431898 -0.000000 -0.000002 -0.000000 -8.986800 -31.471113 -17.131989 11.776464 -17.863707 18.065428 -0.954937 -15.993991 -0.145955 -2.000757 -0.069240 1.990978 -52.005310 -6.426404 -34.613338 3.771892 9.499640 -41.945900 -5.747039 -23.267092 -45.739925 1.990970 -0.069577 -2.000746 67.771400 14.549737 -6.457945 -12.995955 -6.458999 117.585899 -85.276764 -73.785820 -84.685020 15.686395 -11.809542 13.511847 -10.362824 46.671581 5.241488 -4.126718 -30.453527 -7.110357 -8.726188 -7.613105 2.831946 18.569508 43.306393 -5.320087 -14.509591 -40.780243 -17.636681 
1.025276 46.011620 -3.085247 -0.498433 -2.255777 -2.441494 -0.000000 -0.000002 -0.000000 -10.947312 -37.527592 -18.234993 14.688053 -24.680096 17.857462 -0.954937 -15.993991 -0.145955 -2.000757 -0.069240 1.990978 -43.062309 -15.366848 -30.670242 3.510162 9.696262 -38.842434 -5.968930 -26.925886 -39.618053 1.990970 -0.069577 -2.000746 55.506935 -7.589779 -10.463784 -12.558612 -7.261836 121.134232 -101.682686 -68.790771 -113.507843 16.497854 -12.139229 13.313561 -11.531027 49.599258 6.104451 -4.589706 -32.821873 -7.534829 -8.878449 -7.709042 2.925287 20.250471 45.678162 -6.489283 -15.674307 -42.986855 -18.356236 
1.024008 45.520382 -3.083550 -0.498430 -2.246011 -2.441409 -0.000000 -0.000002 -0.000000 -12.628793 -42.230591 -19.140022 16.710638 -30.231625 17.611753 -0.954937 -15.993991 -0.145955 -2.000757 -0.069240 1.990978 -31.398434 -25.419010 -26.371292 3.215153 9.904293 -35.479614 -5.627309 -30.981487 -32.455593 1.990970 -0.069577 -2.000746 42.164429 -27.002295 -8.116355 -13.822716 -4.547476 109.611938 -104.483658 -70.801704 -126.382050 17.011036 -12.296502 13.087405 -12.506374 51.741749 6.887084 -5.018114 -34.585445 -7.920337 -8.994318 -7.742111 3.033523 21.569527 47.376419 -7.460535 -16.574596 -44.588791 -18.953720 
1.022123 45.228264 -3.081011 -0.498430 -2.246011 -2.441409 -0.000000 -0.000002 -0.000000 -13.641587 -45.117882 -19.534353 17.687225 -33.937916 17.284973 -0.954937 -15.993991 -0.145955 -2.000757 -0.069240 1.990978 -16.309261 -37.105579 -20.402571 2.879740 10.114101 -31.697285 -4.548214 -35.408859 -24.142494 1.990970 -0.069577 -2.000746 32.007099 -40.038506 0.357152 -14.519023 1.955115 84.503754 -72.088982 -83.365425 -94.800896 17.330633 -12.498065 12.963115 -13.152172 53.092735 7.393494 -5.214265 -35.530754 -8.111256 -9.084566 -7.751224 3.089074 22.396349 48.376396 -8.076998 -17.048460 -45.446934 -19.290873 
1.019588 45.187016 -3.077596 -0.498426 -2.236246 -2.441324 -0.000000 -0.000002 -0.000000 -13.573790 -45.761395 -19.032574 17.551773 -35.245754 16.838331 -0.954937 -15.993991 -0.145955 -2.000757 -0.069240 1.990978 5.341105 -50.407692 -8.692653 2.453461 10.318507 -27.274904 -2.470891 -40.174706 -14.442993 1.990970 -0.069577 -2.000746 25.705523 -50.587749 22.679296 -7.459374 12.991360 32.035019 50.486534 -63.987839 41.416584 17.400961 -12.561995 12.932358 -13.347134 53.446381 7.566625 -4.903084 -34.830891 -7.894823 -9.121336 -7.757306 3.113285 22.551428 48.542927 -8.191462 -16.521860 -44.668907 -18.967537 
1.016372 45.545383 -3.073272 -0.498423 -2.226481 -2.441239 -0.000000 -0.000002 -0.000000 -10.760707 -40.483704 -16.009956 13.773998 -27.714231 15.470909 -0.954937 -15.993991 -0.145955 -2.000757 -0.069240 1.990978 14.756042 -58.689835 -5.059837 2.092888 10.481022 -23.561462 4.223081 -40.270714 -2.726619 1.990970 -0.069577 -2.000746 27.435732 -61.767433 37.628464 0.306512 15.049149 0.060672 39.732540 -35.638687 54.687836 16.998596 -12.868606 13.169366 -12.825383 52.397537 7.144278 -4.741068 -34.138081 -7.811219 -9.219076 -8.178752 3.104227 21.791763 47.618347 -7.645068 -15.945612 -43.960209 -18.598143 
1.012462 46.335693 -3.068014 -0.488650 -2.226500 -2.440943 -0.000000 -0.000002 -0.000000 -6.321841 -27.872896 -11.637763 6.598018 -10.158305 13.757689 -0.954937 -15.993991 -0.145955 -2.000757 -0.069240 1.990978 -11.954444 -57.684013 -32.409172 1.883288 10.546721 -21.498854 14.018147 -31.882376 7.758114 1.990970 -0.069577 -2.000746 36.671009 -61.793510 10.898376 -12.333939 8.251757 58.783871 21.772360 -32.800297 37.794704 16.070429 -13.646506 13.697404 -11.626595 49.625114 6.209650 -3.506240 -30.550377 -6.997722 -9.397546 -9.210359 2.918225 20.166044 45.489693 -6.441380 -14.048572 -40.574017 -17.413710 
